<svg xmlns="http://www.w3.org/2000/svg" viewBox="0 0 512 512"><rect width="512" height="512" rx="64" fill="#2E8B57"/><g transform="translate(56,56) scale(0.78)"><path fill="#fff" fill-rule="evenodd" d="M 109.5 511.0 L 104.0 508.5 L 99.5 502.0 L 99.5 481.0 L 104.5 452.0 L 117.5 409.0 L 127.5 385.0 L 146.5 349.0 L 166.5 320.0 L 184.5 300.0 L 172.0 301.5 L 150.0 308.5 L 134.0 316.5 L 118.0 327.5 L 99.5 346.0 L 87.5 363.0 L 76.5 384.0 L 69.5 404.0 L 65.0 409.5 L 61.0 411.5 L 52.0 411.5 L 44.5 406.0 L 42.5 402.0 L 42.5 393.0 L 46.5 382.0 L 57.5 358.0 L 70.5 337.0 L 84.5 320.0 L 108.0 299.5 L 122.0 290.5 L 152.0 277.5 L 177.0 271.5 L 201.5 269.0 L 198.0 266.5 L 170.0 260.5 L 146.0 251.5 L 128.0 242.5 L 105.0 227.5 L 89.5 214.0 L 67.5 190.0 L 52.5 167.0 L 42.5 146.0 L 42.5 137.0 L 49.0 129.5 L 53.0 127.5 L 60.0 127.5 L 64.0 129.5 L 68.5 134.0 L 78.5 155.0 L 87.5 169.0 L 99.5 184.0 L 118.0 201.5 L 138.0 215.5 L 162.0 227.5 L 182.0 234.5 L 194.0 237.5 L 198.5 237.0 L 198.5 234.0 L 168.5 206.0 L 148.5 181.0 L 130.5 152.0 L 115.5 119.0 L 105.5 87.0 L 99.5 50.0 L 99.5 23.0 L 106.0 15.5 L 111.0 13.5 L 119.0 14.5 L 126.5 22.0 L 127.5 44.0 L 131.5 73.0 L 137.5 96.0 L 146.5 120.0 L 161.5 149.0 L 173.5 167.0 L 191.5 189.0 L 204.0 201.5 L 206.5 199.0 L 210.5 187.0 L 200.5 167.0 L 198.5 154.0 L 198.5 139.0 L 200.5 134.0 L 205.0 129.5 L 210.0 127.5 L 219.0 128.5 L 224.5 133.0 L 227.5 141.0 L 227.5 157.0 L 230.0 164.5 L 241.0 158.5 L 254.0 155.5 L 270.0 158.5 L 281.0 164.5 L 283.5 157.0 L 283.5 141.0 L 286.5 133.0 L 295.0 127.5 L 301.0 127.5 L 306.0 129.5 L 310.5 134.0 L 312.5 139.0 L 312.5 154.0 L 310.5 167.0 L 300.5 187.0 L 304.5 199.0 L 307.0 201.5 L 319.5 189.0 L 337.5 167.0 L 349.5 149.0 L 363.5 122.0 L 373.5 96.0 L 379.5 73.0 L 383.5 43.0 L 383.5 25.0 L 385.5 20.0 L 392.0 14.5 L 400.0 13.5 L 405.0 15.5 L 410.5 21.0 L 411.5 50.0 L 407.5 78.0 L 399.5 108.0 L 387.5 138.0 L 370.5 169.0 L 353.5 193.0 L 342.5 206.0 L 312.5 234.0 L 312.5 237.0 L 317.0 237.5 L 325.0 235.5 L 349.0 227.5 L 373.0 215.5 L 393.0 201.5 L 417.5 177.0 L 432.5 155.0 L 442.5 134.0 L 447.0 129.5 L 451.0 127.5 L 458.0 127.5 L 467.5 135.0 L 468.5 146.0 L 466.5 151.0 L 458.5 167.0 L 443.5 190.0 L 434.5 201.0 L 406.0 227.5 L 383.0 242.5 L 358.0 254.5 L 334.0 262.5 L 309.5 268.0 L 310.0 269.5 L 334.0 271.5 L 362.0 278.5 L 389.0 290.5 L 403.0 299.5 L 420.0 313.5 L 437.5 333.0 L 453.5 358.0 L 464.5 382.0 L 468.5 393.0 L 468.5 402.0 L 466.5 406.0 L 459.0 411.5 L 450.0 411.5 L 446.0 409.5 L 441.5 404.0 L 434.5 384.0 L 423.5 363.0 L 411.5 346.0 L 394.0 328.5 L 382.0 319.5 L 361.0 308.5 L 339.0 301.5 L 326.5 300.0 L 344.5 320.0 L 364.5 349.0 L 383.5 385.0 L 393.5 409.0 L 403.5 440.0 L 411.5 481.0 L 411.5 502.0 L 407.0 508.5 L 401.5 511.0 Z M 393.5 511.0 L 385.5 505.0 L 383.5 500.0 L 383.5 487.0 L 380.5 466.0 L 366.5 418.0 L 353.5 388.0 L 341.0 366.5 L 336.5 390.0 L 331.5 403.0 L 316.5 426.0 L 307.0 435.5 L 296.0 443.5 L 284.0 449.5 L 265.0 454.5 L 246.0 454.5 L 236.0 452.5 L 215.0 443.5 L 204.0 435.5 L 190.5 421.0 L 179.5 403.0 L 174.5 390.0 L 170.0 366.5 L 157.5 388.0 L 144.5 418.0 L 130.5 466.0 L 127.5 487.0 L 127.5 500.0 L 125.5 505.0 L 117.5 511.0 Z"/></g></svg>